<svg id="Layer_1" xmlns="http://www.w3.org/2000/svg" xmlns:xlink="http://www.w3.org/1999/xlink" viewBox="0 0 108.6 32.9"><style>.st0{fill:#424692}.st1{fill:url(#SVGID_1_)}.st1,.st2,.st3{fill-rule:evenodd;clip-rule:evenodd}.st2{opacity:.4;fill:url(#SVGID_2_)}.st3{clip-path:url(#SVGID_4_);fill:#fff}</style><path class="st0" d="M47.3 22.7v.8h-6.8V11.7h6.7v.8h-5.8v4.6h5.4v.9h-5.4v4.7h5.9zM59.8 11.7v11.8H59l-7-10.1v10.1h-.9V11.7h.8l7 10.1V11.7h.9zM75.6 18.5c0 2.8-2.2 5.2-5.7 5.2-3.7 0-6.2-2.7-6.2-6.1s2.5-6.1 6.1-6.1c2.2 0 4.1 1.1 5.1 2.8l-.8.5c-.8-1.5-2.4-2.5-4.3-2.5-3.1 0-5.2 2.3-5.2 5.2 0 2.9 2.1 5.2 5.3 5.2 2.9 0 4.6-1.8 4.8-4h-5V18h5.9v.5zM86 22.7v.8h-6.4V11.7h.9v10.9H86zM96.3 22.7v.8h-6.8V11.7h6.7v.8h-5.8v4.6h5.4v.9h-5.4v4.7h5.9zM104.8 18.7h-3.7v4.8h-.9V11.7h4.6c1.9 0 3.5 1.6 3.5 3.5 0 1.6-1.1 2.9-2.6 3.4l2.9 5h-1l-2.8-4.9zm-3.7-.9h3.8c1.4 0 2.6-1.2 2.6-2.6 0-1.5-1.2-2.6-2.6-2.6h-3.8v5.2z"/><linearGradient id="SVGID_1_" gradientUnits="userSpaceOnUse" x1="-4.238" y1="16.46" x2="36.278" y2="16.46"><stop offset="0" stop-color="#5a4c9b"/><stop offset="1" stop-color="#3e73aa"/></linearGradient><circle class="st1" cx="16.4" cy="16.5" r="16.4"/><linearGradient id="SVGID_2_" gradientUnits="userSpaceOnUse" x1="10.059" y1="1.024" x2="15.144" y2="23.961"><stop offset="0" stop-color="#fff"/><stop offset="1" stop-color="#fff" stop-opacity="0"/></linearGradient><path class="st2" d="M.1 16.4c0 2.5.6 4.8 1.5 6.9 3.2 1.5 6.9 2.1 10.7 1.2 8.9-2 14.5-10.7 12.5-19.6-.3-1.2-.7-2.3-1.1-3.3C21.5.6 19.1 0 16.6 0 7.4 0 .1 7.4.1 16.4z"/><g><defs><path id="SVGID_3_" d="M24.8 20.2c-.3-.6-1-.8-1.6-.5-.6.3-.8 1-.5 1.6L18 23.7c-.3-.5-.8-.8-1.4-.8-.2 0-.3 0-.5.1l-1.8-3.6c.4-.3.5-.8.4-1.3l3-1.5c.3.5 1 .7 1.5.4.6-.3.8-1 .5-1.6-.3-.6-1-.8-1.6-.5-.5.3-.8.9-.6 1.4l-3 1.5c-.3-.4-.8-.6-1.3-.5L11.1 13c.4-.3.5-.8.4-1.3l4.7-2.4c.3.5.8.8 1.4.8.9 0 1.6-.7 1.6-1.6 0-.9-.7-1.6-1.6-1.6S16 7.6 16 8.5c0 .2 0 .4.1.6l-4.7 2.4c-.3-.5-1-.7-1.5-.4-.6.3-.8 1-.5 1.6.3.6 1 .8 1.5.5l2.2 4.4c-.5.3-.8 1-.5 1.6.3.6 1 .8 1.5.5l1.8 3.5c-.5.3-.9.8-.9 1.4 0 .9.7 1.6 1.6 1.6.9 0 1.6-.7 1.6-1.6 0-.2 0-.4-.1-.6l4.7-2.4c.3.4.9.5 1.4.3.7-.4.9-1.1.6-1.7z"/></defs><use xlink:href="#SVGID_3_" overflow="visible" fill-rule="evenodd" clip-rule="evenodd" fill="#fff"/><clipPath id="SVGID_4_"><use xlink:href="#SVGID_3_" overflow="visible"/></clipPath><path class="st3" d="M9 6.8h.2v19.4H9zM9.2 6.8h.2v19.4h-.2z"/><path class="st3" d="M9.3 6.8h.2v19.4h-.2zM9.5 6.8h.2v19.4h-.2zM9.7 6.8h.2v19.4h-.2zM9.9 6.8h.2v19.4h-.2zM10.1 6.8h.2v19.4h-.2zM10.3 6.8h.2v19.4h-.2zM10.5 6.8h.2v19.4h-.2zM10.7 6.8h.2v19.4h-.2z"/><path class="st3" d="M10.8 6.8h.2v19.4h-.2zM11 6.8h.2v19.4H11zM11.2 6.8h.2v19.4h-.2zM11.4 6.8h.2v19.4h-.2zM11.6 6.8h.2v19.4h-.2zM11.8 6.8h.2v19.4h-.2zM12 6.8h.2v19.4H12zM12.2 6.8h.2v19.4h-.2zM12.4 6.8h.2v19.4h-.2z"/><path class="st3" d="M12.5 6.8h.2v19.4h-.2zM12.7 6.8h.2v19.4h-.2zM12.9 6.8h.2v19.4h-.2zM13.1 6.8h.2v19.4h-.2zM13.3 6.8h.2v19.4h-.2zM13.5 6.8h.2v19.4h-.2zM13.7 6.8h.2v19.4h-.2zM13.9 6.8h.2v19.4h-.2z"/><path class="st3" d="M14 6.8h.2v19.4H14zM14.2 6.8h.2v19.4h-.2zM14.4 6.8h.2v19.4h-.2zM14.6 6.8h.2v19.4h-.2zM14.8 6.8h.2v19.4h-.2zM15 6.8h.2v19.4H15zM15.2 6.8h.2v19.4h-.2zM15.4 6.8h.2v19.4h-.2z"/><path class="st3" d="M15.5 6.8h.2v19.4h-.2zM15.7 6.8h.2v19.4h-.2zM15.9 6.8h.2v19.4h-.2zM16.1 6.8h.2v19.4h-.2zM16.3 6.8h.2v19.4h-.2zM16.5 6.8h.2v19.4h-.2zM16.7 6.8h.2v19.4h-.2zM16.9 6.8h.2v19.4h-.2zM17.1 6.8h.2v19.4h-.2z"/><path class="st3" d="M17.2 6.8h.2v19.4h-.2zM17.4 6.8h.2v19.4h-.2zM17.6 6.8h.2v19.4h-.2zM17.8 6.8h.2v19.4h-.2zM18 6.8h.2v19.4H18zM18.2 6.8h.2v19.4h-.2zM18.4 6.8h.2v19.4h-.2zM18.6 6.8h.2v19.4h-.2z"/><path class="st3" d="M18.7 6.8h.2v19.4h-.2zM18.9 6.8h.2v19.4h-.2zM19.1 6.8h.2v19.4h-.2zM19.3 6.8h.2v19.4h-.2zM19.5 6.8h.2v19.4h-.2zM19.7 6.8h.2v19.4h-.2zM19.9 6.8h.2v19.4h-.2zM20.1 6.8h.2v19.4h-.2zM20.3 6.8h.2v19.4h-.2z"/><path class="st3" d="M20.4 6.8h.2v19.4h-.2zM20.6 6.8h.2v19.4h-.2zM20.8 6.8h.2v19.4h-.2zM21 6.8h.2v19.4H21zM21.2 6.8h.2v19.4h-.2zM21.4 6.8h.2v19.4h-.2zM21.6 6.8h.2v19.4h-.2zM21.8 6.8h.2v19.4h-.2z"/><path class="st3" d="M21.9 6.8h.2v19.4h-.2zM22.1 6.8h.2v19.4h-.2zM22.3 6.8h.2v19.4h-.2zM22.5 6.8h.2v19.4h-.2zM22.7 6.8h.2v19.4h-.2zM22.9 6.8h.2v19.4h-.2zM23.1 6.8h.2v19.4h-.2zM23.3 6.8h.2v19.4h-.2z"/><path class="st3" d="M23.4 6.8h.2v19.4h-.2zM23.6 6.8h.2v19.4h-.2zM23.8 6.8h.2v19.4h-.2zM24 6.8h.2v19.4H24zM24.2 6.8h.2v19.4h-.2zM24.4 6.8h.2v19.4h-.2zM24.6 6.8h.2v19.4h-.2zM24.8 6.8h.2v19.4h-.2zM25 6.8h.2v19.4H25z"/></g></svg>